<?xml version="1.0" encoding="UTF-8" standalone="no"?>
<svg
   viewBox="0 0 512 512"
   version="1.1"
   id="svg4"
   sodipodi:docname="mug-hot-solid.svg"
   width="512"
   height="512"
   inkscape:export-filename="icon512_any.png"
   inkscape:export-xdpi="120.00001"
   inkscape:export-ydpi="120.00001"
   inkscape:version="1.2.2 (b0a8486541, 2022-12-01)"
   xmlns:inkscape="http://www.inkscape.org/namespaces/inkscape"
   xmlns:sodipodi="http://sodipodi.sourceforge.net/DTD/sodipodi-0.dtd"
   xmlns="http://www.w3.org/2000/svg"
   xmlns:svg="http://www.w3.org/2000/svg">
   <defs
      id="defs8" />
   <sodipodi:namedview
      id="namedview6"
      pagecolor="#e0e0fc"
      bordercolor="#ffffff"
      borderopacity="0"
      inkscape:showpageshadow="2"
      inkscape:pageopacity="0"
      inkscape:pagecheckerboard="0"
      inkscape:deskcolor="#e6e6e6"
      showgrid="false"
      inkscape:zoom="1.4511719"
      inkscape:cx="204.31763"
      inkscape:cy="250.83176"
      inkscape:window-width="3840"
      inkscape:window-height="2065"
      inkscape:window-x="0"
      inkscape:window-y="58"
      inkscape:window-maximized="1"
      inkscape:current-layer="svg4" />
   <circle
      style="fill:#e0e0fc;fill-opacity:1;stroke-width:0.109013;opacity:1"
      id="path897"
      cx="256"
      cy="256"
      r="204.8"
      inkscape:label="Circle" />
   <path
      d="m 192,116 c -6.65,0 -12,5.35 -12,12 0,19.45 11.7,29.7 19.55,36.55 l 0.55,0.5 c 8.15,7.1 11.9,10.9 11.9,18.95 0,6.65 5.35,12 12,12 6.65,0 12,-5.35 12,-12 0,-19.45 -11.7,-29.7 -19.55,-36.55 l -0.55,-0.5 C 207.75,139.85 204,136.05 204,128 c 0,-6.65 -5.35,-12 -12,-12 z m -28,96 c -8.85,0 -16,7.15 -16,16 v 96 c 0,26.5 21.5,48 48,48 h 96 c 26.5,0 48,-21.5 48,-48 h 8 c 30.95,0 56,-25.05 56,-56 0,-30.95 -25.05,-56 -56,-56 h -24 z m 176,32 h 8 c 13.25,0 24,10.75 24,24 0,13.25 -10.75,24 -24,24 h -8 z M 260,128 c 0,-6.65 -5.35,-12 -12,-12 -6.65,0 -12,5.35 -12,12 0,19.45 11.7,29.7 19.55,36.55 l 0.55,0.5 c 8.15,7.1 11.9,10.9 11.9,18.95 0,6.65 5.35,12 12,12 6.65,0 12,-5.35 12,-12 0,-19.45 -11.7,-29.7 -19.55,-36.55 l -0.55,-0.5 C 263.75,139.85 260,136.05 260,128 Z"
      id="path2"
      style="opacity:1;fill:#3b3d91;fill-opacity:1;stroke-width:0.5"
      inkscape:label="Mug" />
</svg>