<?xml version="1.0" encoding="UTF-8" standalone="no"?>
<svg
   height="512"
   viewBox="0 -512 384 0"
   version="1.1"
   id="svg16193"
   sodipodi:docname="calculator_template.svg"
   width="512"
   inkscape:export-filename="..\static\icons\shortcuts\calculator96.png"
   inkscape:export-xdpi="18"
   inkscape:export-ydpi="18"
   inkscape:version="1.2.2 (732a01da63, 2022-12-09)"
   xmlns:inkscape="http://www.inkscape.org/namespaces/inkscape"
   xmlns:sodipodi="http://sodipodi.sourceforge.net/DTD/sodipodi-0.dtd"
   xmlns="http://www.w3.org/2000/svg"
   xmlns:svg="http://www.w3.org/2000/svg">
   <defs
      id="defs16197" />
   <sodipodi:namedview
      id="namedview16195"
      pagecolor="#ffffff"
      bordercolor="#666666"
      borderopacity="1.0"
      inkscape:showpageshadow="2"
      inkscape:pageopacity="0.0"
      inkscape:pagecheckerboard="0"
      inkscape:deskcolor="#d1d1d1"
      showgrid="false"
      inkscape:zoom="1"
      inkscape:cx="108.5"
      inkscape:cy="287"
      inkscape:window-width="1920"
      inkscape:window-height="1017"
      inkscape:window-x="-8"
      inkscape:window-y="-8"
      inkscape:window-maximized="1"
      inkscape:current-layer="svg16193" />
   <circle
      style="fill:#dbdee7;stroke-width:1.18897"
      id="path16199"
      cx="256"
      cy="256"
      r="204.8" />
   <path
      d="m 192,128 c -17.65,0 -32,14.35 -32,32 v 192 c 0,17.65 14.35,32 32,32 h 128 c 17.65,0 32,-14.35 32,-32 V 160 c 0,-17.65 -14.35,-32 -32,-32 z m 16,32 h 96 c 8.85,0 16,7.15 16,16 v 16 c 0,8.85 -7.15,16 -16,16 h -96 c -8.85,0 -16,-7.15 -16,-16 v -16 c 0,-8.85 7.15,-16 16,-16 z m 16,80 a 16,16 0 1 1 -32,0 16,16 0 1 1 32,0 z m -16,64 a 16,16 0 1 1 0,-32 16,16 0 1 1 0,32 z m -16,32 c 0,-8.85 7.15,-16 16,-16 h 48 c 8.85,0 16,7.15 16,16 0,8.85 -7.15,16 -16,16 h -48 c -8.85,0 -16,-7.15 -16,-16 z m 64,-80 a 16,16 0 1 1 0,-32 16,16 0 1 1 0,32 z m 16,32 a 16,16 0 1 1 -32,0 16,16 0 1 1 32,0 z m 32,-32 a 16,16 0 1 1 0,-32 16,16 0 1 1 0,32 z m 16,32 a 16,16 0 1 1 -32,0 16,16 0 1 1 32,0 z m -16,64 a 16,16 0 1 1 0,-32 16,16 0 1 1 0,32 z"
      id="path16191"
      style="stroke-width:0.5;fill:#081638;fill-opacity:1" />
</svg>