<?xml version="1.0" encoding="UTF-8" standalone="no"?>
<svg
   height="512"
   viewBox="0 -512 448 0"
   version="1.1"
   id="svg4"
   sodipodi:docname="drip_counter.svg"
   width="512"
   inkscape:version="1.2.2 (b0a8486541, 2022-12-01)"
   inkscape:export-filename="../static/icons/shortcuts/drip_counter96.png"
   inkscape:export-xdpi="18"
   inkscape:export-ydpi="18"
   xmlns:inkscape="http://www.inkscape.org/namespaces/inkscape"
   xmlns:sodipodi="http://sodipodi.sourceforge.net/DTD/sodipodi-0.dtd"
   xmlns="http://www.w3.org/2000/svg"
   xmlns:svg="http://www.w3.org/2000/svg">
  <defs
     id="defs8" />
  <sodipodi:namedview
     id="namedview6"
     pagecolor="#ffffff"
     bordercolor="#eeeeee"
     borderopacity="1"
     inkscape:showpageshadow="0"
     inkscape:pageopacity="0"
     inkscape:pagecheckerboard="0"
     inkscape:deskcolor="#505050"
     showgrid="false"
     inkscape:zoom="1"
     inkscape:cx="224"
     inkscape:cy="326.5"
     inkscape:window-width="1920"
     inkscape:window-height="2065"
     inkscape:window-x="1920"
     inkscape:window-y="58"
     inkscape:window-maximized="0"
     inkscape:current-layer="svg4" />
  <circle
     style="fill:#dbdee7;stroke-width:0.130054"
     id="path1019"
     cx="256"
     cy="256"
     r="204.8" />
  <path
     d="m 232,126 c -8.85,0 -16,7.15 -16,16 0,8.85 7.15,15.99999 16,15.99999 h 8 V 175.2 c -49.85,7.7 -88,50.8 -88,102.8 0,57.45 46.55,104 104,104 57.45,0 104,-46.55 104,-104 0,-20.9 -6.15,-40.35 -16.75,-56.6 l 12.05,-12.05 c 6.25,-6.25 6.25,-16.4 0,-22.65 -6.25,-6.25 -16.4,-6.25 -22.65,0 l -10.8,10.8 C 307.8,186 290.75,178.1 272,175.2 v -17.20001 h 8 c 8.85,0 16,-7.14999 16,-15.99999 0,-8.85 -7.15,-16 -16,-16 h -24 z m 36,96 v 64 c 0,6.65 -5.35,12 -12,12 -6.65,0 -12,-5.35 -12,-12 v -64 c 0,-6.65 5.35,-12 12,-12 6.65,0 12,5.35 12,12 z"
     id="path2"
     style="fill:#081638;fill-opacity:1;stroke-width:0.5" />
</svg>
