<?xml version="1.0" encoding="UTF-8" standalone="no"?>
<svg
   height="512"
   viewBox="0 -512 512 0"
   version="1.1"
   id="svg6556"
   sodipodi:docname="my_coffees_template.svg"
   width="512"
   inkscape:version="1.2.2 (732a01da63, 2022-12-09)"
   inkscape:export-filename="..\static\icons\shortcuts\my_coffees96.png"
   inkscape:export-xdpi="18"
   inkscape:export-ydpi="18"
   xmlns:inkscape="http://www.inkscape.org/namespaces/inkscape"
   xmlns:sodipodi="http://sodipodi.sourceforge.net/DTD/sodipodi-0.dtd"
   xmlns="http://www.w3.org/2000/svg"
   xmlns:svg="http://www.w3.org/2000/svg">
   <defs
      id="defs6560" />
   <sodipodi:namedview
      id="namedview6558"
      pagecolor="#ffffff"
      bordercolor="#666666"
      borderopacity="1.0"
      inkscape:showpageshadow="2"
      inkscape:pageopacity="0.0"
      inkscape:pagecheckerboard="0"
      inkscape:deskcolor="#d1d1d1"
      showgrid="false"
      inkscape:zoom="1"
      inkscape:cx="144.5"
      inkscape:cy="240"
      inkscape:window-width="1920"
      inkscape:window-height="1017"
      inkscape:window-x="-8"
      inkscape:window-y="-8"
      inkscape:window-maximized="1"
      inkscape:current-layer="svg6556" />
   <circle
      style="fill:#dbdee7;fill-opacity:1;stroke-width:1.92524"
      id="path8548"
      cx="256"
      cy="256"
      r="204.8" />
   <path
      d="m 380,156 c 0,56.8 -42.3,103.75 -97.1,111 -3.55,-26.7 -15.3,-50.8 -32.65,-69.65 C 269.4,163.15 306,140 348,140 h 16 c 8.85,0 16,7.15 16,16 z m -256,32 c 0,-8.85 7.15,-16 16,-16 h 16 c 61.85,0 112,50.15 112,112 v 16 80 c 0,8.85 -7.15,16 -16,16 -8.85,0 -16,-7.15 -16,-16 V 300 C 174.15,300 124,249.85 124,188 Z"
      id="path6554"
      style="fill:#081638;fill-opacity:1;stroke-width:0.5" />
</svg>