<?xml version="1.0" encoding="UTF-8" standalone="no"?>
<svg
   height="512"
   viewBox="0 -512 512 0"
   version="1.1"
   id="svg20326"
   sodipodi:docname="settings_template.svg"
   width="512"
   inkscape:export-filename="..\static\icons\shortcuts\settings96.png"
   inkscape:export-xdpi="18"
   inkscape:export-ydpi="18"
   inkscape:version="1.2.2 (732a01da63, 2022-12-09)"
   xmlns:inkscape="http://www.inkscape.org/namespaces/inkscape"
   xmlns:sodipodi="http://sodipodi.sourceforge.net/DTD/sodipodi-0.dtd"
   xmlns="http://www.w3.org/2000/svg"
   xmlns:svg="http://www.w3.org/2000/svg">
   <defs
      id="defs20330" />
   <sodipodi:namedview
      id="namedview20328"
      pagecolor="#ffffff"
      bordercolor="#666666"
      borderopacity="1.0"
      inkscape:showpageshadow="2"
      inkscape:pageopacity="0.0"
      inkscape:pagecheckerboard="0"
      inkscape:deskcolor="#d1d1d1"
      showgrid="false"
      inkscape:zoom="1"
      inkscape:cx="222.5"
      inkscape:cy="240"
      inkscape:window-width="1920"
      inkscape:window-height="1017"
      inkscape:window-x="-8"
      inkscape:window-y="-8"
      inkscape:window-maximized="1"
      inkscape:current-layer="svg20326" />
   <circle
      style="fill:#dbdee7;fill-opacity:1;stroke-width:1.55831"
      id="path22264"
      cx="256"
      cy="256"
      r="204.8" />
   <path
      d="m 375.99844,211.31627 c 1.6003,4.35085 0.25004,9.2018 -3.20064,12.30241 l -21.65423,19.70385 c 0.55012,4.1508 0.85017,8.40164 0.85017,12.70248 0,4.30084 -0.30005,8.55167 -0.85017,12.70248 l 21.65423,19.70384 c 3.45068,3.10061 4.80094,7.95156 3.20064,12.30241 -2.20044,5.95116 -4.85095,11.65227 -7.90155,17.15334 l -2.35046,4.0508 c -3.30065,5.50108 -7.00136,10.70209 -11.05216,15.60305 -2.95058,3.6007 -7.85153,4.80094 -12.25239,3.40066 l -27.85544,-8.85173 c -6.70131,5.15101 -14.10276,9.45185 -22.0043,12.70248 l -6.25122,28.55558 c -1.0002,4.55089 -4.50087,8.15159 -9.10177,8.90174 C 270.3278,383.39988 263.22641,384 255.975,384 c -7.25142,0 -14.35281,-0.60012 -21.25416,-1.75034 -4.60089,-0.75015 -8.10158,-4.35085 -9.10178,-8.90174 l -6.25121,-28.55558 c -7.90155,-3.25063 -15.30299,-7.55147 -22.0043,-12.70248 l -27.80543,8.90174 c -4.40086,1.40027 -9.30182,0.15003 -12.25239,-3.40067 -4.0508,-4.90095 -7.75152,-10.10197 -11.05216,-15.60304 l -2.35046,-4.05079 c -3.0506,-5.50108 -5.70112,-11.20219 -7.90155,-17.15335 -1.60031,-4.35086 -0.25004,-9.2018 3.20063,-12.3024 l 21.65423,-19.70385 c -0.55011,-4.20082 -0.85017,-8.45165 -0.85017,-12.75249 0,-4.30084 0.30006,-8.55168 0.85017,-12.70248 l -21.65423,-19.70385 c -3.45067,-3.10061 -4.80094,-7.95156 -3.20063,-12.30241 2.20043,-5.95116 4.85095,-11.65227 7.90155,-17.15334 l 2.35046,-4.0508 c 3.30064,-5.50107 7.00136,-10.70208 11.05216,-15.60305 2.95057,-3.6007 7.85153,-4.80093 12.25239,-3.40066 l 27.85544,8.85173 c 6.70131,-5.151 14.10275,-9.45185 22.0043,-12.70248 l 6.25121,-28.55557 c 1.0002,-4.5509 4.50088,-8.1516 9.10178,-8.90174 C 241.6722,128.60012 248.77358,128 256.025,128 c 7.25141,0 14.3528,0.60012 21.25415,1.75034 4.6009,0.75015 8.10159,4.35086 9.10178,8.90175 l 6.25122,28.55557 c 7.90155,3.25064 15.30299,7.55147 22.0043,12.70248 l 27.85544,-8.85172 c 4.40086,-1.40028 9.30182,-0.15004 12.2524,3.40066 4.05078,4.90095 7.7515,10.10197 11.05215,15.60304 l 2.35046,4.0508 c 3.0506,5.50107 5.70111,11.20219 7.90154,17.15334 z M 256.025,296.03282 a 40.007814,40.007814 0 1 0 0,-80.01562 40.007814,40.007814 0 1 0 0,80.01562 z"
      id="path20324"
      style="stroke-width:0.500098;fill:#081638;fill-opacity:1" />
</svg>